<?xml version="1.0" standalone="no"?>
<!DOCTYPE svg PUBLIC "-//W3C//DTD SVG 20010904//EN"
 "http://www.w3.org/TR/2001/REC-SVG-20010904/DTD/svg10.dtd">
<svg version="1.0" xmlns="http://www.w3.org/2000/svg"
 width="600.000000pt" height="600.000000pt" viewBox="0 0 600.000000 600.000000"
 preserveAspectRatio="xMidYMid meet">
<metadata>
Created by potrace 1.14, written by Peter Selinger 2001-2017
</metadata>
<g transform="translate(0.000000,600.000000) scale(0.100000,-0.100000)"
fill="#000000" stroke="none">
<path d="M3460 5480 c-48 -26 -1926 -1908 -1940 -1943 -14 -40 -13 -122 4
-160 18 -41 892 -913 929 -927 45 -16 117 -12 162 10 57 28 1918 1892 1940
1943 20 49 19 113 -4 162 -23 49 -882 909 -924 924 -44 17 -128 12 -167 -9z"/>
<path d="M2830 2624 c-8 -8 -13 -29 -13 -46 0 -54 63 -78 103 -38 24 24 25 48
4 78 -18 26 -75 30 -94 6z m20 -41 c0 -21 -3 -24 -9 -14 -5 8 -7 20 -4 28 8
21 13 15 13 -14z m66 -9 c-4 -9 -9 -15 -11 -12 -3 3 -3 13 1 22 4 9 9 15 11
12 3 -3 3 -13 -1 -22z m-31 -24 c3 -5 1 -10 -4 -10 -6 0 -11 5 -11 10 0 6 2
10 4 10 3 0 8 -4 11 -10z"/>
<path d="M3149 2141 c-24 -24 -29 -38 -29 -76 0 -66 39 -105 105 -105 38 0 52
5 76 29 24 24 29 38 29 76 0 66 -39 105 -105 105 -38 0 -52 -5 -76 -29z"/>
<path d="M4450 2142 c-24 -25 -30 -39 -30 -75 0 -38 5 -49 30 -70 16 -14 35
-27 42 -30 10 -4 8 -10 -6 -21 -20 -16 -16 -43 9 -52 21 -9 91 40 115 79 13
21 20 50 20 84 0 73 -28 104 -98 111 -47 4 -54 2 -82 -26z"/>
<path d="M950 1775 l0 -347 213 4 c238 4 278 13 360 81 153 126 148 419 -9
530 -92 65 -118 70 -351 75 l-213 4 0 -347z m387 136 c73 -34 101 -124 61
-200 -35 -68 -65 -85 -159 -90 l-79 -3 0 156 0 156 68 0 c44 0 81 -7 109 -19z"/>
<path d="M1858 1936 c-147 -41 -226 -184 -183 -332 13 -47 28 -70 68 -109 59
-57 105 -75 194 -75 144 0 252 111 253 260 0 179 -162 304 -332 256z m123
-195 c17 -18 29 -40 29 -56 0 -29 -48 -85 -74 -85 -32 0 -66 21 -81 51 -20 39
-6 82 34 104 39 21 59 18 92 -14z"/>
<path d="M4170 1941 c-126 -26 -210 -130 -210 -261 0 -154 108 -260 264 -260
82 0 135 20 184 70 57 56 77 105 77 190 0 64 -4 82 -29 128 -56 101 -174 156
-286 133z m89 -186 c42 -21 57 -65 37 -104 -30 -58 -82 -67 -127 -22 -16 16
-29 40 -29 53 0 30 26 67 54 78 29 12 33 12 65 -5z"/>
<path d="M2477 1916 c-44 -22 -47 -22 -47 -5 0 17 -9 19 -95 19 l-95 0 0 -250
0 -250 95 0 95 0 0 154 c0 149 1 155 22 170 27 19 72 21 87 3 6 -8 12 -75 13
-168 l3 -154 89 -3 c65 -2 92 1 98 10 4 7 8 77 8 155 0 135 1 143 22 157 32
22 64 20 82 -6 13 -18 16 -53 16 -170 l0 -148 95 0 95 0 0 200 c0 225 -7 256
-62 290 -62 38 -188 22 -245 -31 l-21 -21 -11 21 c-30 55 -160 70 -244 27z"/>
<path d="M3627 1916 c-44 -22 -47 -22 -47 -5 0 17 -9 19 -95 19 l-95 0 0 -250
0 -250 95 0 95 0 0 154 c0 149 1 155 22 170 33 24 84 20 102 -6 13 -18 16 -53
16 -170 l0 -148 95 0 95 0 0 208 c0 190 -2 210 -20 240 -26 43 -74 62 -153 62
-47 0 -76 -6 -110 -24z"/>
<path d="M4686 1925 c-22 -8 -53 -27 -70 -44 -25 -25 -30 -40 -33 -88 -7 -104
34 -142 190 -174 103 -21 124 -33 82 -49 -35 -13 -84 -5 -158 28 -55 24 -58
24 -71 7 -31 -43 -59 -103 -53 -118 19 -50 256 -86 354 -53 106 35 154 144
105 236 -24 44 -72 68 -173 86 -89 15 -94 17 -84 33 10 18 73 13 125 -10 27
-12 55 -19 63 -16 7 2 25 27 40 55 33 60 28 69 -58 101 -66 25 -198 28 -259 6z"/>
<path d="M3130 1680 l0 -251 93 3 92 3 3 248 2 247 -95 0 -95 0 0 -250z"/>
<path d="M2451 1236 c-45 -25 -64 -91 -40 -139 33 -64 116 -77 171 -29 27 25
31 36 31 77 0 41 -4 52 -31 77 -36 31 -89 37 -131 14z"/>
<path d="M1830 855 l0 -345 105 0 105 0 0 89 0 88 79 6 c95 6 162 38 203 96
77 108 55 280 -45 352 -66 48 -122 59 -294 59 l-153 0 0 -345z m317 133 c48
-45 17 -107 -60 -115 l-47 -6 0 72 0 71 42 0 c29 0 49 -7 65 -22z"/>
<path d="M3783 1019 c-53 -13 -125 -75 -154 -137 -29 -58 -32 -176 -6 -234 24
-54 76 -108 122 -129 55 -25 145 -25 194 1 34 17 40 17 45 4 5 -12 23 -14 98
-12 l93 3 0 245 0 245 -93 3 c-71 2 -94 0 -98 -11 -4 -12 -11 -11 -42 4 -49
23 -107 30 -159 18z m147 -174 c72 -37 67 -133 -10 -165 -79 -33 -154 66 -104
138 28 41 69 50 114 27z"/>
<path d="M2414 997 c-2 -7 -3 -118 -2 -247 l3 -235 93 -3 92 -3 0 251 0 250
-90 0 c-64 0 -92 -4 -96 -13z"/>
<path d="M2662 928 l3 -83 83 -3 83 -3 -86 -97 -85 -97 0 -67 0 -68 215 0 215
0 0 85 0 85 -85 0 -86 0 86 97 85 97 0 68 0 68 -215 0 -216 0 3 -82z"/>
<path d="M3152 928 l3 -83 83 -3 83 -3 -86 -97 -85 -97 0 -67 0 -68 215 0 215
0 0 85 0 85 -80 0 c-44 0 -80 3 -80 6 0 3 36 47 80 97 l80 92 0 67 0 68 -215
0 -216 0 3 -82z"/>
<path d="M4236 994 c-22 -21 -20 -67 2 -87 40 -37 102 -9 102 46 0 34 -24 57
-60 57 -16 0 -36 -7 -44 -16z m11 -56 c-3 -7 -5 -2 -5 12 0 14 2 19 5 13 2 -7
2 -19 0 -25z m69 -5 c-11 -11 -17 4 -9 23 7 18 8 18 11 1 2 -10 1 -21 -2 -24z
m-32 -8 c3 -8 1 -15 -4 -15 -6 0 -10 7 -10 15 0 8 2 15 4 15 2 0 6 -7 10 -15z"/>
</g>
</svg>
